<?xml version="1.0" encoding="UTF-8" standalone="no"?>
<!-- Created with Inkscape (http://www.inkscape.org/) -->

<svg
   xmlns:dc="http://purl.org/dc/elements/1.1/"
   xmlns:cc="http://creativecommons.org/ns#"
   xmlns:rdf="http://www.w3.org/1999/02/22-rdf-syntax-ns#"
   xmlns:svg="http://www.w3.org/2000/svg"
   xmlns="http://www.w3.org/2000/svg"
   xmlns:sodipodi="http://sodipodi.sourceforge.net/DTD/sodipodi-0.dtd"
   xmlns:inkscape="http://www.inkscape.org/namespaces/inkscape"
   width="744.09448819"
   height="1052.3622047"
   id="svg2"
   version="1.1"
   inkscape:version="0.48.4 r9939"
   sodipodi:docname="logo.svg">
  <defs
     id="defs4" />
  <sodipodi:namedview
     id="base"
     pagecolor="#ffffff"
     bordercolor="#666666"
     borderopacity="1.0"
     inkscape:pageopacity="0.0"
     inkscape:pageshadow="2"
     inkscape:zoom="2"
     inkscape:cx="309.23652"
     inkscape:cy="600.13097"
     inkscape:document-units="px"
     inkscape:current-layer="layer1"
     showgrid="false"
     inkscape:window-width="1366"
     inkscape:window-height="706"
     inkscape:window-x="-8"
     inkscape:window-y="-8"
     inkscape:window-maximized="1" />
  <metadata
     id="metadata7">
    <rdf:RDF>
      <cc:Work
         rdf:about="">
        <dc:format>image/svg+xml</dc:format>
        <dc:type
           rdf:resource="http://purl.org/dc/dcmitype/StillImage" />
        <dc:title />
      </cc:Work>
    </rdf:RDF>
  </metadata>
  <g
     inkscape:label="Layer 1"
     inkscape:groupmode="layer"
     id="layer1">
    <path
       style="font-size:40px;font-style:normal;font-weight:normal;line-height:125%;letter-spacing:0px;word-spacing:0px;fill:#000000;fill-opacity:1;stroke:none;font-family:Orbitron;-inkscape-font-specification:Orbitron;font-stretch:normal;font-variant:normal"
       d="M 202.28125 441.71875 L 202.28125 470.5 L 206.625 470.5 L 206.625 458.28125 L 227.4375 458.28125 L 227.4375 462.375 C 228.04134 461.49304 228.81728 460.9375 229.6875 460.9375 C 230.47089 460.9375 231.20447 461.39498 231.78125 462.125 L 231.78125 441.71875 L 227.4375 441.71875 L 227.4375 453.96875 L 206.625 453.96875 L 206.625 441.71875 L 202.28125 441.71875 z M 245.9375 447.3125 L 245.9375 451.625 L 254.5625 451.625 C 254.80255 451.62502 255.01414 451.73334 255.1875 451.90625 C 255.36082 452.0792 255.43748 452.25995 255.4375 452.5 L 255.4375 456.75 L 236.15625 456.75 L 236.15625 465.3125 C 236.15625 466.75293 236.67431 467.98682 237.6875 469 C 238.70068 470.01318 239.90331 470.5 241.34375 470.5 L 259.75 470.5 L 259.75 452.5 C 259.74997 451.0604 259.23191 449.85695 258.21875 448.84375 C 257.20554 447.83059 256.00291 447.31252 254.5625 447.3125 L 245.9375 447.3125 z M 269.0625 447.3125 C 267.62288 447.31252 266.38859 447.83059 265.375 448.84375 C 264.36141 449.85695 263.84375 451.0604 263.84375 452.5 L 263.84375 465.3125 C 263.84375 466.75293 264.36141 467.98682 265.375 469 C 266.38859 470.01318 267.62288 470.5 269.0625 470.5 L 279.875 470.5 C 279.58662 469.97299 279.40625 469.35784 279.40625 468.6875 C 279.40625 467.69471 279.79058 466.81009 280.375 466.1875 L 269.0625 466.1875 C 268.82242 466.1875 268.61083 466.11084 268.4375 465.9375 C 268.26415 465.76416 268.15624 465.55258 268.15625 465.3125 L 268.15625 452.5 C 268.15624 452.25995 268.26415 452.0792 268.4375 451.90625 C 268.61083 451.73334 268.82242 451.62502 269.0625 451.625 L 287.375 451.625 L 287.375 447.3125 L 269.0625 447.3125 z M 309.96875 447.3125 L 301.3125 456.75 L 296.09375 456.75 L 296.09375 448.9375 L 291.78125 448.9375 L 291.78125 470.5 L 296.09375 470.5 L 296.09375 461.0625 L 301.3125 461.0625 L 309.96875 470.5 L 315.09375 470.5 L 315.09375 469.90625 L 305.125 458.90625 L 315.09375 447.90625 L 315.09375 447.3125 L 309.96875 447.3125 z M 317.5625 447.3125 L 317.5625 451.625 L 335.96875 451.625 C 336.2088 451.62502 336.42039 451.73334 336.59375 451.90625 C 336.76707 452.0792 336.84373 452.25995 336.84375 452.5 L 336.84375 456.75 L 331.46875 456.75 C 331.98876 457.32695 332.3125 458.10041 332.3125 458.96875 C 332.3125 459.77366 332.01688 460.49981 331.5625 461.0625 L 336.84375 461.0625 L 336.84375 466.1875 L 322.75 466.1875 C 322.50992 466.1875 322.29833 466.11084 322.125 465.9375 C 321.95165 465.76416 321.87499 465.55258 321.875 465.3125 L 321.875 461.0625 L 327.125 461.0625 C 326.67062 460.49981 326.375 459.77366 326.375 458.96875 C 326.375 458.10041 326.69874 457.32695 327.21875 456.75 L 317.5625 456.75 L 317.5625 465.3125 C 317.5625 466.75293 318.08056 467.98682 319.09375 469 C 320.10693 470.01318 321.30956 470.5 322.75 470.5 L 341.15625 470.5 L 341.15625 452.5 C 341.15622 451.0604 340.63816 449.85695 339.625 448.84375 C 338.61179 447.83059 337.40916 447.31252 335.96875 447.3125 L 317.5625 447.3125 z M 240.46875 461.0625 L 255.4375 461.0625 L 255.4375 466.1875 L 241.34375 466.1875 C 241.10367 466.1875 240.89208 466.11084 240.71875 465.9375 C 240.5454 465.76416 240.46874 465.55258 240.46875 465.3125 L 240.46875 461.0625 z "
       id="text2985" />
    <path
       d="m 240.85937,444.21875 c -2.64734,0.26885 -4.71875,2.53172 -4.71875,5.25 0,2.89949 2.35051,5.25 5.25,5.25 2.89949,0 5.25,-2.35051 5.25,-5.25 0,-2.89949 -2.35051,-5.25 -5.25,-5.25 -0.18122,0 -0.35476,-0.0179 -0.53125,0 z m 0.53125,2.9375 c 1.27716,0 2.3125,1.03534 2.3125,2.3125 0,1.27716 -1.03534,2.3125 -2.3125,2.3125 -1.27716,0 -2.3125,-1.03534 -2.3125,-2.3125 0,-1.27716 1.03534,-2.3125 2.3125,-2.3125 z"
       id="path2989"
       inkscape:connector-curvature="0" />
    <path
       d="m 283.32593,344.76703 c -2.64734,0.26885 -4.71875,2.53172 -4.71875,5.25 0,2.89949 2.35051,5.25 5.25,5.25 2.89949,0 5.25,-2.35051 5.25,-5.25 0,-2.89949 -2.35051,-5.25 -5.25,-5.25 -0.18122,0 -0.35476,-0.0179 -0.53125,0 z m 0.53125,2.9375 c 1.27716,0 2.3125,1.03534 2.3125,2.3125 0,1.27716 -1.03534,2.3125 -2.3125,2.3125 -1.27716,0 -2.3125,-1.03534 -2.3125,-2.3125 0,-1.27716 1.03534,-2.3125 2.3125,-2.3125 z"
       id="path2989-1"
       inkscape:connector-curvature="0" />
    <path
       d="m 293.4042,439.71328 c -2.64734,0.26885 -4.71875,2.53172 -4.71875,5.25 0,2.89949 2.35051,5.25 5.25,5.25 2.89949,0 5.25,-2.35051 5.25,-5.25 0,-2.89949 -2.35051,-5.25 -5.25,-5.25 -0.18122,0 -0.35476,-0.0179 -0.53125,0 z m 0.53125,2.9375 c 1.27716,0 2.3125,1.03534 2.3125,2.3125 0,1.27716 -1.03534,2.3125 -2.3125,2.3125 -1.27716,0 -2.3125,-1.03534 -2.3125,-2.3125 0,-1.27716 1.03534,-2.3125 2.3125,-2.3125 z"
       id="path2989-1-7"
       inkscape:connector-curvature="0" />
    <path
       d="m 281.66318,463.10846 c -2.64734,0.26885 -4.71875,2.53172 -4.71875,5.25 0,2.89949 2.35051,5.25 5.25,5.25 2.89949,0 5.25,-2.35051 5.25,-5.25 0,-2.89949 -2.35051,-5.25 -5.25,-5.25 -0.18122,0 -0.35476,-0.0179 -0.53125,0 z m 0.53125,2.9375 c 1.27716,0 2.3125,1.03534 2.3125,2.3125 0,1.27716 -1.03534,2.3125 -2.3125,2.3125 -1.27716,0 -2.3125,-1.03534 -2.3125,-2.3125 0,-1.27716 1.03534,-2.3125 2.3125,-2.3125 z"
       id="path2989-1-0"
       inkscape:connector-curvature="0" />
    <path
       d="m 328.81575,453.67679 c -2.64734,0.26885 -4.71875,2.53172 -4.71875,5.25 0,2.89949 2.35051,5.25001 5.25,5.25001 2.89949,0 5.25,-2.35052 5.25,-5.25001 0,-2.89949 -2.35051,-5.25 -5.25,-5.25 -0.18122,0 -0.35476,-0.0179 -0.53125,0 z m 0.53125,2.9375 c 1.27716,0 2.3125,1.03534 2.3125,2.3125 0,1.27716 -1.03534,2.3125 -2.3125,2.3125 -1.27716,0 -2.3125,-1.03534 -2.3125,-2.3125 0,-1.27716 1.03534,-2.3125 2.3125,-2.3125 z"
       id="path2989-1-9"
       inkscape:connector-curvature="0" />
    <path
       d="m 229.08535,470.48723 c -2.64734,-0.26885 -4.71875,-2.53172 -4.71875,-5.25 0,-2.89949 2.35051,-5.25 5.25,-5.25 2.89949,0 5.25,2.35051 5.25,5.25 0,2.89949 -2.35051,5.25 -5.25,5.25 -0.18122,0 -0.35476,0.0179 -0.53125,0 z m 0.53125,-2.9375 c 1.27716,0 2.3125,-1.03534 2.3125,-2.3125 0,-1.27716 -1.03534,-2.3125 -2.3125,-2.3125 -1.27716,0 -2.3125,1.03534 -2.3125,2.3125 0,1.27716 1.03534,2.3125 2.3125,2.3125 z"
       id="path2989-1-4"
       inkscape:connector-curvature="0" />
    <text
       xml:space="preserve"
       style="font-size:40px;font-style:normal;font-variant:normal;font-weight:bold;font-stretch:normal;line-height:125%;letter-spacing:0px;word-spacing:0px;fill:#000000;fill-opacity:1;stroke:none;font-family:Lato;-inkscape-font-specification:Lato Bold"
       x="344.0625"
       y="470.11218"
       id="text3017"
       sodipodi:linespacing="125%"><tspan
         sodipodi:role="line"
         id="tspan3019"
         x="344.0625"
         y="470.11218"
         style="font-style:normal;font-variant:normal;font-weight:normal;font-stretch:normal;line-height:0%;letter-spacing:0px;word-spacing:0px;writing-mode:lr-tb;font-family:Lato;-inkscape-font-specification:Lato"
         dx="0">Soton</tspan></text>
  </g>
</svg>
